<svg xmlns="http://www.w3.org/2000/svg" viewBox="0 0 31.5 47.54"><defs><style>.cls-1{fill:#879eca;}</style></defs><g id="レイヤー_2" data-name="レイヤー 2"><g id="レイヤー_1-2" data-name="レイヤー 1"><path class="cls-1" d="M31.15,4.76h-15l-3,10.08a12.71,12.71,0,0,1,2.94-.28c9.38,0,15.4,7.07,15.4,16.17,0,10.43-7.84,16.81-17,16.81A15.84,15.84,0,0,1,4.06,43.89,19.43,19.43,0,0,1,0,39.13l4.13-2.94A10.86,10.86,0,0,0,7.28,40a11.46,11.46,0,0,0,7.56,2.8c6.58,0,11.48-5.39,11.48-12A11.07,11.07,0,0,0,14.84,19.32c-1.68,0-4.83.28-9,3.22L12.6,0H31.15Z"/></g></g></svg>