<svg xmlns="http://www.w3.org/2000/svg" viewBox="0 0 206.59 204.89"><defs><style>.cls-1{fill:#8aa3d2;}</style></defs><g id="レイヤー_2" data-name="レイヤー 2"><g id="レイヤー_4" data-name="レイヤー 4"><path class="cls-1" d="M67.84,32.62,59,5.54l24.69,13.3L78,1.26,81.87,0l8.76,26.93L66,13.64l5.77,17.72Z"/><path class="cls-1" d="M121.54,18.22a9,9,0,0,1-17.9-1.91,9,9,0,0,1,17.9,1.91Zm-4-.39c.41-3.82-1.93-5.63-4.4-5.9s-5.14,1-5.54,4.84c-.35,3.23,1.34,5.54,4.4,5.86S117.22,21.06,117.56,17.83Z"/><path class="cls-1" d="M139.43,15.33,143,17l-.64,1.38a6.91,6.91,0,0,1,2.08-.59,4.52,4.52,0,0,1,2.41.5,5.7,5.7,0,0,1,2.46,2l-2.94,2.56a3.56,3.56,0,0,0-1.56-1.39,3.08,3.08,0,0,0-2.61-.18,5.43,5.43,0,0,0-2.6,3.07l-3.66,7.91-3.56-1.64Z"/><path class="cls-1" d="M163.42,28.8l2.74,2.81L165,32.7a5.17,5.17,0,0,1,4.34,1.58,5,5,0,0,1,1.27,4.85A6,6,0,0,1,175.91,41a5.39,5.39,0,0,1,1.47,5.28A8.36,8.36,0,0,1,175,49.84l-7.44,7.27-2.74-2.81,6.64-6.48a7.78,7.78,0,0,0,1.89-2.35,2.22,2.22,0,0,0-.5-2.64A2.89,2.89,0,0,0,170.3,42,6.79,6.79,0,0,0,167,44.18l-6.21,6.06-2.74-2.81L164.71,41a7.9,7.9,0,0,0,1.9-2.35A2.22,2.22,0,0,0,166.1,36a2.88,2.88,0,0,0-2.5-.79,6.74,6.74,0,0,0-3.28,2.14l-6.22,6.06-2.73-2.81Z"/><path class="cls-1" d="M187.76,81.34a9,9,0,1,1,5.12-11.56A8.75,8.75,0,0,1,187.76,81.34Zm-1.45-3.73c3.59-1.36,4.16-4.27,3.28-6.59s-3.23-4.12-6.82-2.76c-3,1.15-4.34,3.69-3.25,6.57S183.28,78.76,186.31,77.61Z"/><path class="cls-1" d="M195,100l-13.22.76-.23-3.92,13.22-.76-.09-1.63,3.59-.21.09,1.64,6.15-.35.23,3.91-6.15.35.17,3-3.59.2Z"/><path class="cls-1" d="M196.87,122l-16.6-2.88.68-3.87,16.59,2.89Zm9.67-.31a2.52,2.52,0,1,1-2-2.91A2.45,2.45,0,0,1,206.54,121.71Z"/><path class="cls-1" d="M176.6,151.19a9,9,0,1,1,12-4A8.75,8.75,0,0,1,176.6,151.19Zm1.78-3.58c3.42,1.75,6,.22,7.08-2s.89-5.16-2.53-6.91c-2.88-1.48-5.64-.73-7.05,2S175.5,146.14,178.38,147.61Z"/><path class="cls-1" d="M172.8,169.31,169.9,172l-1.05-1.16a5.75,5.75,0,0,1-2,4.55,5.66,5.66,0,0,1-5.21,1.66c-1.09-.25-2.17-.84-3.92-2.77l-6.94-7.63,2.9-2.64,6.3,6.92c2.88,3.17,4.14,2.18,5.24,1.19,1.3-1.19,2.47-2.58-1.19-6.6l-5.44-6,2.9-2.64Z"/><path class="cls-1" d="M131,191.84l-10.42,3.53-.07-.19c-1.46-4.32-1.36-8.28.29-11.5a12.51,12.51,0,0,1,7.51-6.13,11.62,11.62,0,0,1,9.77.54,14,14,0,0,1-1.73,26,14.44,14.44,0,0,1-7.13.64,12.13,12.13,0,0,1-5.37-2.4l2.33-3.2a11.12,11.12,0,0,0,4.08,1.83,9,9,0,0,0,4.85-.42,9.61,9.61,0,0,0,5.78-4.87,11.09,11.09,0,0,0-4.64-14,8.7,8.7,0,0,0-7.19-.39,8.05,8.05,0,0,0-4.89,4.14,7.19,7.19,0,0,0-.67,5l6.29-2.13Z"/><path class="cls-1" d="M102.69,199.1l-3.92-.2.08-1.51a7.08,7.08,0,0,1-1.71,1.31,4.5,4.5,0,0,1-2.43.44,5.66,5.66,0,0,1-3-.95l1.77-3.47a3.55,3.55,0,0,0,2,.69,3,3,0,0,0,2.48-.79,5.45,5.45,0,0,0,1.27-3.83l.43-8.71,3.91.2Z"/><path class="cls-1" d="M64.47,190.88l-3.65-1.44L67,173.77l3.65,1.44L70,176.85a6.48,6.48,0,0,1,5.53-.28c4.84,1.91,6,7,4.31,11.33-2,5.09-6.74,6.84-10.87,5.22a6.18,6.18,0,0,1-3.77-4.07Zm11.67-4.52c1.07-2.72.25-5.66-2.39-6.7-2.31-.91-5.09-.07-6.38,3.2-1.35,3.43.13,5.9,2.44,6.81C72.45,190.71,75,189.15,76.14,186.36Z"/><path class="cls-1" d="M59.31,157.46l2.88,2.66-17.64,19.1-2.88-2.66,1.25-1.35a6.35,6.35,0,0,1-5.22-1.72c-3.26-3-3.71-8.06-.08-12,3.86-4.17,9.19-3.82,12.13-1.1a6.67,6.67,0,0,1,2,5.24Zm-11.68,13c2.39-2.58,1.93-5.45.11-7.13-2.08-1.93-5.09-1.39-7.07.76s-2.31,5.21-.23,7.14C42.26,172.91,45.13,173.17,47.63,170.46Z"/><path class="cls-1" d="M10.22,158.34l-1.76-3.51,12.31-6.16a6.08,6.08,0,0,1-3.71-3.2,5.71,5.71,0,0,1-.18-5.46,8.25,8.25,0,0,1,3.7-3.06l9.23-4.63,1.75,3.51-8.9,4.46a4,4,0,0,0-2.27,2,2.91,2.91,0,0,0,.2,2.36,3.49,3.49,0,0,0,2.54,2c1,.14,2.22-.22,4.15-1.19l7.26-3.64,1.76,3.51Z"/><path class="cls-1" d="M0,122A2.46,2.46,0,0,1,2.09,119,2.52,2.52,0,1,1,3,124,2.46,2.46,0,0,1,0,122Zm9-3.57,16.59-2.93.68,3.87L9.72,122.24Z"/><path class="cls-1" d="M14.21,87.8a6.56,6.56,0,0,0-2.53,4.54,5,5,0,0,0,1.11,3.84A5.36,5.36,0,0,0,16.51,98a5.6,5.6,0,0,0,4.17-1.12,5.12,5.12,0,0,0,1.7-3.41,6.55,6.55,0,0,0-1.69-5l4.34.42a9.21,9.21,0,0,1,.82,5.23,8.23,8.23,0,0,1-3.08,6.13A8.76,8.76,0,0,1,16.25,102,9,9,0,0,1,10,98.81a9.18,9.18,0,0,1-1.81-7,9,9,0,0,1,1.64-4.46Z"/><path class="cls-1" d="M20.68,65.57a2.82,2.82,0,0,0-2.27,1.64,1.65,1.65,0,0,0-.06,1.28,1.23,1.23,0,0,0,.66.67A1.09,1.09,0,0,0,20.12,69c.24-.15.41-.34,1.14-.94L23,66.63a7.94,7.94,0,0,1,2.36-1.56,4.17,4.17,0,0,1,3.36.09A5.63,5.63,0,0,1,31.64,68a6,6,0,0,1-.13,5.08A5.8,5.8,0,0,1,29.09,76a6.59,6.59,0,0,1-3.68.78l-.14-3.54a4.46,4.46,0,0,0,1.83-.22,2.41,2.41,0,0,0,1.26-1.33A2.34,2.34,0,0,0,28.48,70a2,2,0,0,0-1-1,1.82,1.82,0,0,0-1.38,0,5.13,5.13,0,0,0-1.62,1.14l-1.19,1a8.3,8.3,0,0,1-2.23,1.57,3.7,3.7,0,0,1-3.09,0A5.24,5.24,0,0,1,15.21,70a5.45,5.45,0,0,1,.15-4.42,5.29,5.29,0,0,1,2-2.52,5.67,5.67,0,0,1,2.67-.95Z"/></g></g></svg>