<svg xmlns="http://www.w3.org/2000/svg" viewBox="0 0 273.07 285.12"><defs><style>.fabimgcor{fill:#879eca;}</style></defs><g id="レイヤー_2" data-name="レイヤー 2"><g id="レイヤー_1-2" data-name="レイヤー 1"><g id="ksl70p.tif"><path class="fabimgcor" d="M273.07,204.92a29.54,29.54,0,0,1-1.72-4.52c-4.59-22.05-17-38.27-36.85-48.58-2.85-1.48-6.72-1-10.12-1.41-.14,3.35-1.18,7-.26,10,3.68,12.15,4.54,24.19.91,36.49-9.64,32.62-43.64,49.91-76.42,39.06-3-1-6.68,0-10,.14.36,3.4.71,6.81,1.08,10.21a2.38,2.38,0,0,0,.32.78c12.61,24.54,40.13,40.18,66.5,37.79,30.88-2.79,54.84-21.8,63.14-50.14,1.25-4.28,2.31-8.62,3.46-12.93M148.36,94.39C148.35,64,124,39.51,93.84,39.67a54.68,54.68,0,1,0,54.52,54.72Zm-48.29,77.53H100c0-4.2.62-8.54-.25-12.55-.45-2-3.55-4.74-5.51-4.8s-5.59,2.72-5.72,4.46a174.76,174.76,0,0,0-.08,25.17c.13,1.88,3.91,5.21,5.42,4.91a9.22,9.22,0,0,0,6-5.49C100.81,180,100.07,175.84,100.07,171.92Zm.05-154.42h0c0-3.64.79-7.53-.25-10.85C99.1,4.06,96,2.19,93.92,0c-2,2-5.48,3.88-5.67,6a131.53,131.53,0,0,0,.07,23.48c.2,2.13,3.87,5.51,5.87,5.45s5-3.37,5.67-5.77C100.83,25.53,100.12,21.42,100.12,17.5Zm63.77,14.14c-1.29-1.7-2.18-4.09-3.57-4.43-2.09-.51-5.18-.36-6.71.89A121.89,121.89,0,0,0,137.71,43c-1.73,2-.94,6.17-1.3,9.35,3.16-.19,7.24.82,9.29-.78,5.47-4.28,10.14-9.61,15-14.67C161.94,35.55,162.66,33.68,163.89,31.64Zm7.41,56.85c-3.92,0-8-.7-11.7.25-2.37.62-4.11,3.66-6.13,5.61,2,1.93,3.91,5.33,6.08,5.52a137.39,137.39,0,0,0,23.48,0c2.1-.18,5.48-3.63,5.43-5.5s-3.17-5-5.46-5.64C179.32,87.79,175.22,88.49,171.3,88.49ZM53.84,48.16c-.19-.62-.18-2-.87-2.7C46.91,39.28,40.91,33,34.43,27.3c-1.19-1.05-5.3-.56-6.52.71S26,33.45,27,34.65a182.49,182.49,0,0,0,18,18.63C48.78,56.54,53.86,53.46,53.84,48.16ZM17,100.15c3.92,0,8,.65,11.7-.24,2.34-.57,4.13-3.44,6.17-5.28-1.86-2-3.59-5.68-5.61-5.84A154.27,154.27,0,0,0,5,88.77C3.06,88.91-.25,92.53,0,94a8.78,8.78,0,0,0,5.32,5.83C9,100.83,13.1,100.13,17,100.15Zm37.66,40.33c-1.44-1.72-2.57-4.37-4.09-4.6-2.4-.38-5.73.06-7.47,1.55a107.85,107.85,0,0,0-14.71,14.82c-1.66,2.11-.87,6.13-1.19,9.28,3.23-.46,7.29.14,9.54-1.59,5.25-4.07,9.7-9.2,14.34-14C52.38,144.57,53.19,142.78,54.68,140.48Zm108.21,16.86c-.12-.54-.07-1.25-.4-1.59-6.6-6.75-13.09-13.62-20.05-20-1-.88-5,.23-6.43,1.61-1.13,1.06-1.45,4.86-.47,6a207.41,207.41,0,0,0,18.18,18.49C157.29,165,162.93,161.77,162.89,157.34Z"/><path class="fabimgcor" d="M273.07,221.81c-1.15,4.31-2.21,8.65-3.46,12.93-8.3,28.34-32.26,47.35-63.14,50.14-26.37,2.39-53.89-13.25-66.5-37.79a2.38,2.38,0,0,1-.32-.78c-.37-3.4-.72-6.81-1.08-10.21,3.36-.1,7-1.13,10-.14,32.78,10.85,66.78-6.44,76.42-39.06,3.63-12.3,2.77-24.34-.91-36.49-.92-3,.12-6.65.26-10,3.4.42,7.27-.07,10.12,1.41,19.89,10.31,32.26,26.53,36.85,48.58a29.54,29.54,0,0,0,1.72,4.52ZM158.36,250.76c10,16.34,34.44,25.56,55.31,21.44,24.31-4.8,43.84-25.36,47.45-50,3-20.36-6.85-44.08-21.52-51.9C235.54,227.44,214.16,248.81,158.36,250.76Z"/><path class="fabimgcor" d="M148.36,94.39A54.31,54.31,0,1,1,93.84,39.67C124,39.51,148.35,64,148.36,94.39Z"/><path class="fabimgcor" d="M100.07,171.92c0,3.92.74,8.05-.26,11.7a9.22,9.22,0,0,1-6,5.49c-1.51.3-5.29-3-5.42-4.91A174.76,174.76,0,0,1,88.49,159c.13-1.74,3.76-4.51,5.72-4.46s5.06,2.78,5.51,4.8c.87,4,.25,8.35.25,12.55Z"/><path class="fabimgcor" d="M100.12,17.5c0,3.92.71,8-.26,11.7-.63,2.4-3.64,5.7-5.67,5.77s-5.67-3.32-5.87-5.45A131.53,131.53,0,0,1,88.25,6c.19-2.16,3.69-4,5.67-6,2.08,2.19,5.18,4.06,6,6.65,1,3.32.25,7.21.25,10.85Z"/><path class="fabimgcor" d="M163.89,31.64c-1.23,2-1.95,3.91-3.22,5.24-4.83,5.06-9.5,10.39-15,14.67-2,1.6-6.13.59-9.29.78.36-3.18-.43-7.34,1.3-9.35a121.89,121.89,0,0,1,15.9-14.88c1.53-1.25,4.62-1.4,6.71-.89C161.71,27.55,162.6,29.94,163.89,31.64Z"/><path class="fabimgcor" d="M171.3,88.49c3.92,0,8-.7,11.7.25,2.29.59,5.4,3.62,5.46,5.64s-3.33,5.32-5.43,5.5a137.39,137.39,0,0,1-23.48,0c-2.17-.19-4.06-3.59-6.08-5.52,2-1.95,3.76-5,6.13-5.61C163.28,87.79,167.38,88.49,171.3,88.49Z"/><path class="fabimgcor" d="M53.84,48.16c0,5.3-5.06,8.38-8.79,5.12A182.49,182.49,0,0,1,27,34.65c-1-1.2-.41-5.29.9-6.64s5.33-1.76,6.52-.71C40.91,33,46.91,39.28,53,45.46,53.66,46.17,53.65,47.54,53.84,48.16Z"/><path class="fabimgcor" d="M17,100.14c-3.92,0-8,.69-11.69-.28A8.78,8.78,0,0,1,0,94c-.26-1.5,3.05-5.12,5-5.26a154.27,154.27,0,0,1,24.32,0c2,.16,3.75,3.8,5.61,5.84-2,1.84-3.83,4.71-6.17,5.28C25,100.8,20.94,100.15,17,100.14Z"/><path class="fabimgcor" d="M54.68,140.48c-1.49,2.3-2.3,4.09-3.58,5.43-4.64,4.83-9.09,10-14.34,14-2.25,1.73-6.31,1.13-9.54,1.59.32-3.15-.47-7.17,1.19-9.28a107.85,107.85,0,0,1,14.71-14.82c1.74-1.49,5.07-1.93,7.47-1.55C52.11,136.11,53.24,138.76,54.68,140.48Z"/><path class="fabimgcor" d="M162.89,157.34c0,4.43-5.6,7.62-9.17,4.5a207.41,207.41,0,0,1-18.18-18.49c-1-1.1-.66-4.9.47-6,1.47-1.38,5.45-2.49,6.43-1.61,7,6.35,13.45,13.22,20.05,20C162.82,156.09,162.77,156.8,162.89,157.34Z"/><path class="fabimgcor" d="M158.36,250.76c55.8-1.95,77.18-23.32,81.24-80.43,14.67,7.82,24.51,31.54,21.52,51.9-3.61,24.61-23.14,45.17-47.45,50C192.8,276.32,168.39,267.1,158.36,250.76Z"/></g></g></g></svg>