<svg class="fabimgcor" id="レイヤー_1" data-name="レイヤー 1" xmlns="http://www.w3.org/2000/svg" viewBox="0 0 595.28 595.28"><defs><style>.fabimgcor{fill:#8aa3d2;}.cls-2{fill:#fff;}</style></defs><g id="h5stvP"><path d="M473.79,336.49c20-26.35,39.48-52.12,59.35-78.33L499.94,233l-12.15,15.27C468.79,121.72,349.19,45,232.09,74.82,113,105.12,58.27,222,80.1,317.17l40-6C109.3,232.42,133.84,169.9,203.49,131c58.11-32.47,117.27-27.94,172.82,8.8,40.9,27.06,75.06,88.67,69.84,123.23l-25.53-19.16c-8.47,11.23-16.69,22.14-25.14,33.33ZM90.62,328.92C81,360.61,71.64,391.64,62.13,423l39.88,12c2-6.17,3.86-12,5.91-18.37C156.74,509.08,264.28,545.54,353,517.45c80.73-25.56,128.67-94.12,139.26-151.08L453,355.08c-10,40.31-30.47,73.19-63.57,97.54s-70.41,35-111.3,31.83c-70.06-5.4-119.67-53.83-136.26-96.19l30.73,9.13,12.08-39.95Z"/><path class="fabimgcor" d="M473.79,336.49l-78.31-59.3c8.45-11.19,16.67-22.1,25.14-33.33L446.15,263c5.22-34.56-28.94-96.17-69.84-123.23C320.76,103.05,261.6,98.52,203.49,131c-69.65,38.91-94.19,101.43-83.41,180.19l-40,6C58.27,222,113,105.12,232.09,74.82c117.1-29.78,236.7,46.9,255.7,173.49L499.94,233l33.2,25.12C513.27,284.37,493.75,310.14,473.79,336.49Zm27.81-90.56c-3.94,5.19-7.15,9.88-10.9,14.09a9.7,9.7,0,0,1-6.16,2.81c-3.5.2-5.14-2-5.51-5.71-.65-6.63-1.55-13.26-2.77-19.81-20-107.1-128-178.59-234.53-155.33C144,103.32,78.15,191,85.26,290.39c.38,5.32,1.33,10.6,2,16.18,4.58-.62,8.17-1.08,11.76-1.61s7.08-1.1,10.21-1.6C102.08,221.25,131,157.26,205,119.82,269.79,87,333.86,94.91,391.21,139.6c45.56,35.51,66,84.11,65.69,143.24L422.46,256.9l-14,18.47L472,323.49l48.09-63.58Z"/><path class="fabimgcor" d="M90.62,328.92l94.06,28.52L172.6,397.39l-30.73-9.13c16.59,42.36,66.2,90.79,136.26,96.19,40.89,3.16,78.22-7.49,111.3-31.83S443,395.39,453,355.08l39.26,11.29c-10.59,57-58.53,125.52-139.26,151.08-88.72,28.09-196.26-8.37-245.08-100.74-2,6.39-3.92,12.2-5.91,18.37L62.13,423C71.64,391.64,81,360.61,90.62,328.92Zm5.23,94.51c1.78-5.69,3.43-10.83,5-16,.94-3.17,1.72-5.71,6.1-6.12,4.56-.43,5.38,2.3,6.8,5.19,36.13,73.82,113.83,118.57,195.22,109.81,83.19-9,139.35-54.4,169.35-132.33,1.34-3.48,2.1-7.18,3.2-11.05L460,366.73C434.63,459.81,338.36,509.47,254,490.33a174.26,174.26,0,0,1-79.44-40.94c-22.9-20.63-39.1-45.53-49.16-75.83l41,12.23L173,363.6l-76.24-23c-7.83,25.92-15.4,50.94-23,76.27Z"/><path class="cls-2" d="M501.6,245.93l18.5,14L472,323.49l-63.52-48.12,14-18.47,34.44,25.94c.35-59.13-20.13-107.73-65.69-143.24C333.86,94.91,269.79,87,205,119.82c-74,37.44-102.89,101.43-95.69,183.54-3.13.5-6.67,1.08-10.21,1.6s-7.18,1-11.76,1.61c-.72-5.58-1.67-10.86-2-16.18C78.15,191,144,103.32,241.73,82c106.55-23.26,214.53,48.23,234.53,155.33,1.22,6.55,2.12,13.18,2.77,19.81.37,3.67,2,5.91,5.51,5.71A9.7,9.7,0,0,0,490.7,260C494.45,255.81,497.66,251.12,501.6,245.93Z"/><path class="cls-2" d="M95.85,423.43l-22.1-6.6c7.65-25.33,15.22-50.35,23-76.27l76.24,23-6.61,22.19-41-12.23c10.06,30.3,26.26,55.2,49.16,75.83A174.26,174.26,0,0,0,254,490.33c84.32,19.14,180.59-30.52,205.92-123.6l21.53,6.2c-1.1,3.87-1.86,7.57-3.2,11.05-30,77.93-86.16,123.37-169.35,132.33-81.39,8.76-159.09-36-195.22-109.81-1.42-2.89-2.24-5.62-6.8-5.19-4.38.41-5.16,2.95-6.1,6.12C99.28,412.6,97.63,417.74,95.85,423.43Z"/></g></svg>