<svg xmlns="http://www.w3.org/2000/svg" viewBox="0 0 54.78 415"><defs><style>.cls-1{fill:none;stroke:#8aa3d2;stroke-miterlimit:10;stroke-width:2px;}.cls-2{fill:#8aa3d2;}</style></defs><g id="レイヤー_2" data-name="レイヤー 2"><g id="レイヤー_4" data-name="レイヤー 4"><line class="cls-1" x1="1" x2="1" y2="415"/><path class="cls-2" d="M47,15.2a6.43,6.43,0,0,0,2-1.56,4.8,4.8,0,0,0,.92-3c0-2.64-1.64-4.48-4.12-4.48a2.8,2.8,0,0,0-2.32,1A8.71,8.71,0,0,0,41.82,10L40.7,12.52a13,13,0,0,1-2.52,4.12,6.42,6.42,0,0,1-4.84,1.92c-4.92,0-8.2-3.64-8.2-8.44a8,8,0,0,1,2.16-5.8A9.67,9.67,0,0,1,32,1.84l.8,2.88a6.3,6.3,0,0,0-3.4,1.6,5.1,5.1,0,0,0-1.48,3.84,5,5,0,0,0,5.28,5.36,4,4,0,0,0,3.12-1.32A11.64,11.64,0,0,0,38.18,11L39.3,8.6A11.81,11.81,0,0,1,41.5,5,5.54,5.54,0,0,1,45.86,3.2c4.12,0,6.88,3.16,6.88,7.48A7.23,7.23,0,0,1,51.54,15a8.07,8.07,0,0,1-3,2.6Z"/><path class="cls-2" d="M37.58,36.28a6.7,6.7,0,0,0,2.48-5.2c0-3.08-2.16-5.88-6.2-5.88A5.78,5.78,0,0,0,27.7,31a7.08,7.08,0,0,0,2.6,5.36H26.86a8.87,8.87,0,0,1-1.72-5.28,8.5,8.5,0,0,1,8.68-8.88,8.58,8.58,0,0,1,8.8,8.88A8.79,8.79,0,0,1,41,36.28Z"/><path class="cls-2" d="M42.22,40.8v2.88h-1.8a4.61,4.61,0,0,1,2.2,3.76A6.08,6.08,0,0,1,41.94,50l-2.6-1.36A3,3,0,0,0,39.9,47a2.79,2.79,0,0,0-1-2.32c-.64-.48-1.76-1-4.48-1H25.62V40.8Z"/><path class="cls-2" d="M33.86,51.6a8.8,8.8,0,0,1,0,17.6,8.8,8.8,0,0,1,0-17.6Zm0,3a5.85,5.85,0,1,0,0,11.68c4.08,0,6.2-2.8,6.2-5.84S37.9,54.56,33.86,54.56Z"/><path class="cls-2" d="M54.78,76.48H25.62V73.6H54.78Z"/><path class="cls-2" d="M54.78,84.8H25.62V81.92H54.78Z"/></g></g></svg>