<svg xmlns="http://www.w3.org/2000/svg" viewBox="0 0 731.98 142.17"><defs><style>.cls-1{fill:#8aa3d2;}</style></defs><g id="レイヤー_2" data-name="レイヤー 2"><g id="レイヤー_3" data-name="レイヤー 3"><path class="cls-1" d="M223.7,59.78c-10.79,15.07-23.44,34.32-38.51,58,5.94-4.84,12.21-7.81,17.39-7.81,6.6,0,4.39,5.28-2.43,14.74-5.5,7.92-5.17,10.23,1,10.23,12.54,0,45.1-14.08,45.1-14.08l1.11,2.64s-33,14.3-46.21,14.3c-8.91,0-10.12-5-3.29-14.85,6-8.25,6.92-10.12,4.73-10.12-7.48,0-17.94,7.37-25.42,17.6-1.21,1.76-2.31,3.63-3.52,5.5h-.11l-2.42-1.32c0-.11.11-.11.11-.22s.11-.22.22-.22c.77-1.43,1.65-2.75,2.53-4.07,18.92-29.81,34.32-53.68,47.3-71.83-2-1.32-3.84-2.75-5.61-4.18-1.21-1-2.42-1.87-3.63-2.75-4.18-3.08-7.59-4.4-11.55-4.4q-9.57,0-23.76,10.56c-24.2,17.93-51.7,54-65.34,73.37-3.85,5.61-6.49,8.69-6.49,8.69l-.77-.55-2-.88s4-10.45,9.46-24.31c10.67-26.51,26.62-66.33,26.62-77a6.22,6.22,0,0,1,0-1.43c-8.91,0-68.09,77.11-81.51,94.71l-.88,1.32h-.11l-1.65,2.2-2.31-1.76,3.3-4.4C66.5,110.6,133.27,7.53,62,7.53c-58.85,0-92.73,67-10.67,71.17l-.22,2.86C-35.36,77.16,1.38,4.67,62,4.67c59.18,0,31.13,63.91,10,101C95.1,76.17,130.63,32.5,138.22,32.5c2,0,2.86,1.76,2.86,4.29,0,11.22-16.17,51.59-26.84,78-2.42,6.16-4.62,11.66-6.16,15.84a16.09,16.09,0,0,0,1-1.43c13.64-19.36,41.36-55.88,66-74,9.9-7.37,18.37-11.11,25.41-11.11,4.51,0,8.58,1.54,13.2,5,1.32.88,2.54,1.87,3.85,2.86a50.77,50.77,0,0,0,5.5,4.07c21.57-29.7,36.52-43.56,50.5-43.56,32.89,0-18.15,50.27-38.39,50.27A24.39,24.39,0,0,1,223.7,59.78Zm1.75-2.42a20.33,20.33,0,0,0,9.69,2.42c18.14,0,63.58-44.55,38.39-44.55C260.55,15.23,246.36,28.43,225.45,57.36Z"/><path class="cls-1" d="M308.94,123.47c-12.54,5.28-30,11.88-37.51,11.88-4.84,0-7.7-2.2-7.7-6a19,19,0,0,1,1.76-6.93c-5.17,4.84-12.21,10.45-16.61,10.45-2.2,0-3.52-2.42-3.52-5.17,0-6.6,7.37-14.3,14-14.3a7.4,7.4,0,0,1,7,4.29l3.52-3.52,1.32,1.32.88.55c-1.21,1.87-5.5,9.13-5.5,13.31,0,2.2,1.43,3.19,4.84,3.19,5.5,0,18.92-4.29,36.41-11.66ZM248.88,130c3.63,0,10.23-5.5,15.18-10.12a4.59,4.59,0,0,0-4.73-3.63c-4.95,0-11.11,6.49-11.11,11.44C248.22,128.86,248.66,130,248.88,130Z"/><path class="cls-1" d="M368,120.83l1.32,2.64s-37.18,18.7-49.83,18.7c-18.59,0-16.17-17,5.39-40.7,2.86-3.08,5.83-6.16,9-9.24h-2c-6.82,0-10.34-1.87-10.34-5.83h2.86c0,2,2.2,3,7.48,3,1.65,0,3.41-.11,5.28-.22,5-4.62,10.23-9,15.51-13.09l1.76,2.2c-4.18,3.19-8.36,6.71-12.32,10.34l4.73-.66a130.2,130.2,0,0,1,14.74-1.32c6.16,0,9.35,1.65,9.35,5.17h-2.86c0-1.54-2-2.31-6.49-2.31a127.72,127.72,0,0,0-14.3,1.32c-3,.44-5.94.77-8.8,1.1-4.07,3.74-7.92,7.7-11.44,11.55-16.39,17.93-25.19,35.86-7.59,35.86C331.49,139.31,368,120.83,368,120.83Z"/><path class="cls-1" d="M506.94,123.47c-11.33,5.5-29.7,10.67-43.12,10.67-13.64,0-20.57-3.19-20.57-9.9a10.44,10.44,0,0,1,1.32-4.95c-2.53,1.21-5.61,2.53-9.35,4.18l-1.1-2.64c9.35-4,14.3-6.49,16.17-8l.11-.11,1.87,2.2c-4.51,3.85-6.16,6.38-6.16,9.35,0,4.62,5.61,7,17.71,7,13,0,30.69-5,41.8-10.45Zm-46.75-14.41-1.54-2.42,5.72-3.74,1.54,2.42Z"/><path class="cls-1" d="M542.91,134.14a26.25,26.25,0,0,1-11.44-2.86,13.71,13.71,0,0,1-9.9,3.74c-5.83,0-10.78-5.83-12.1-12.65-.88.33-1.76.77-2.64,1.1l-1.1-2.64c1.1-.44,2.2-1,3.3-1.43a19.94,19.94,0,0,1,.77-5.72c1.21-3.85,3.74-2.42,7.7,1.65,4.18-2.09,8.25-4.29,12.54-6.6,1-2.86,4.62-3.08,4.62-3.08h.11c1.76,0,2.42,2.42.88,3.08-1,.55-1.87,1-2.75,1.54a5.65,5.65,0,0,0,.55,3c2.64,5.94,2.42,11.55-.11,15.73a21.19,21.19,0,0,0,9.57,2.31c11.88,0,25.41-5.17,36.52-10.45l1.32,2.64C569.42,128.75,555.23,134.14,542.91,134.14Zm-31-16.06c1-.44,2-1,3-1.43-2.31-2.53-2.2-2.42-2.42-2.09A12.4,12.4,0,0,0,511.89,118.08Zm17.05,11.66c-5.06-3.19-9-7.59-12-10.89l-4.84,2.31c.88,5.83,4.84,11,9.46,11A11.41,11.41,0,0,0,528.94,129.74Zm1-17.82c-3.52,2-6.93,3.85-10.34,5.61a55.83,55.83,0,0,0,11.22,10c2.09-3.3,2.31-8.14,0-13.2A13.06,13.06,0,0,1,529.93,111.92Z"/><path class="cls-1" d="M657.86,137l2.09-4.62,2.64,1.1-2.09,4.62Zm6.71-92.62C665,44.38,673-5.45,713.19.49c18.26,2.64,23.54,17.82,14.41,41.58-4.84,12.43-13.75,21.12-23.76,30.8-11.88,11.33-25.3,24.31-36,47l-2.53-1.21c10.78-23.1,24.64-36.41,36.52-47.85,10-9.68,18.48-17.93,23.1-29.7C733.43,19,729,5.66,712.75,3.35,677.11-1.93,665,47.24,664.57,47.24Z"/></g></g></svg>